<?xml version="1.0" standalone="no"?>
<!DOCTYPE svg PUBLIC "-//W3C//DTD SVG 20010904//EN"
 "http://www.w3.org/TR/2001/REC-SVG-20010904/DTD/svg10.dtd">
<svg version="1.0" xmlns="http://www.w3.org/2000/svg"
 width="486.000000pt" height="149.000000pt" viewBox="0 0 486.000000 149.000000"
 preserveAspectRatio="xMidYMid meet">

<g transform="translate(0.000000,149.000000) scale(0.100000,-0.100000)"
fill="#000000" stroke="none">
<path d="M3830 1416 c-89 -22 -115 -32 -189 -71 -74 -39 -181 -135 -226 -202
l-26 -40 -97 -6 c-148 -8 -229 -50 -267 -139 -30 -73 -26 -78 70 -78 82 0 85
1 91 25 3 14 20 36 36 50 39 33 122 35 162 4 44 -35 32 -106 -22 -123 -9 -3
-63 -12 -120 -20 -136 -19 -203 -50 -231 -110 -53 -108 -3 -234 106 -266 38
-12 158 -9 219 5 25 6 32 3 41 -17 22 -47 94 -135 155 -186 165 -140 391 -194
594 -142 201 52 350 170 443 350 56 110 66 156 66 310 0 115 -3 145 -23 202
-76 220 -251 386 -467 444 -82 22 -246 27 -315 10z m327 -331 c48 -20 70 -41
96 -90 20 -37 22 -58 25 -297 l4 -258 -85 0 -85 0 -4 213 c-3 140 -9 223 -17
245 -32 81 -154 81 -198 -1 -15 -27 -18 -65 -21 -244 l-4 -213 -84 0 -84 0 0
320 0 320 80 0 80 0 0 -42 c0 -41 0 -42 16 -20 8 12 39 36 67 52 42 24 64 30
115 30 34 0 79 -7 99 -15z m-752 -452 c-12 -64 -96 -104 -174 -83 -49 13 -63
30 -63 77 0 50 32 76 113 92 35 7 78 16 94 20 29 7 30 6 33 -33 2 -22 1 -55
-3 -73z"/>
<path d="M855 1081 c-75 -27 -88 -36 -139 -92 -57 -64 -81 -134 -80 -239 2
-135 62 -238 171 -291 65 -32 198 -39 274 -14 64 22 137 91 161 152 l16 43
-74 0 c-71 0 -77 -2 -100 -29 -48 -58 -168 -68 -221 -20 -28 26 -53 77 -53
109 0 20 5 20 230 20 l230 0 0 49 c0 27 -9 79 -21 117 -17 56 -31 77 -77 124
-88 87 -203 112 -317 71z m158 -125 c37 -15 65 -51 74 -96 l6 -30 -142 0
c-131 0 -141 1 -141 19 0 29 43 85 80 103 42 22 79 23 123 4z"/>
<path d="M2224 1081 c-22 -10 -57 -33 -77 -51 l-37 -32 0 41 0 41 -80 0 -80 0
2 -317 3 -318 85 0 85 0 5 220 c3 152 9 227 18 242 36 63 150 70 184 11 9 -16
14 -89 18 -248 l5 -225 83 -1 82 -2 0 178 c0 97 4 202 10 231 17 90 83 130
164 99 46 -17 51 -40 56 -280 l5 -225 85 0 85 0 0 250 c-1 210 -3 256 -17 285
-62 134 -274 161 -379 49 l-27 -29 -39 39 c-61 61 -159 78 -239 42z"/>
<path d="M180 765 l0 -325 218 2 217 3 3 78 3 77 -130 0 c-111 0 -130 2 -135
17 -4 9 -6 115 -6 234 1 120 -1 223 -5 229 -3 5 -42 10 -86 10 l-79 0 0 -325z"/>
<path d="M1356 953 c48 -71 93 -135 101 -144 7 -8 13 -21 13 -28 0 -7 -49 -85
-110 -172 -73 -107 -105 -161 -96 -165 7 -3 51 -4 97 -2 l84 3 67 98 66 99 63
-94 c34 -51 67 -96 73 -100 16 -11 186 -10 186 1 0 5 -50 82 -110 170 -68 99
-108 166 -104 174 4 6 47 68 94 137 48 69 90 131 94 138 6 9 -15 12 -87 12
l-95 0 -54 -80 c-29 -43 -55 -79 -58 -79 -3 0 -29 35 -58 79 l-52 80 -101 0
-100 0 87 -127z"/>
</g>
</svg>
