<?xml version="1.0" standalone="no"?>
<!DOCTYPE svg PUBLIC "-//W3C//DTD SVG 20010904//EN"
 "http://www.w3.org/TR/2001/REC-SVG-20010904/DTD/svg10.dtd">
<svg version="1.0" xmlns="http://www.w3.org/2000/svg"
 width="1024.000000pt" height="1024.000000pt" viewBox="0 0 1024.000000 1024.000000"
 preserveAspectRatio="xMidYMid meet">

<g transform="translate(0.000000,1024.000000) scale(0.100000,-0.100000)"
fill="#000000" stroke="none">
<path d="M4600 8874 c-25 -2 -115 -8 -200 -15 -444 -31 -926 -123 -1311 -249
-168 -55 -407 -170 -549 -265 -227 -150 -350 -346 -350 -555 0 -76 32 -197 72
-273 46 -86 165 -207 273 -279 105 -69 362 -198 525 -263 291 -117 885 -247
1305 -285 260 -24 407 -28 835 -25 562 3 811 25 1230 106 427 83 697 170 1035
334 339 164 503 324 562 548 38 145 13 313 -67 436 -103 160 -252 272 -545
412 -341 163 -948 299 -1585 355 -133 12 -326 17 -685 19 -275 1 -520 1 -545
-1z m1020 -264 c784 -36 1446 -197 1833 -446 133 -86 225 -196 247 -297 24
-103 -29 -228 -136 -326 -156 -143 -395 -251 -807 -366 -285 -79 -516 -122
-837 -155 -163 -16 -610 -40 -760 -40 -347 0 -953 47 -1250 96 -126 21 -501
114 -642 160 -559 180 -830 450 -706 702 51 103 200 228 378 317 159 80 373
152 655 220 334 81 594 114 1090 138 158 8 735 6 935 -3z"/>
<path d="M4835 8399 c-625 -36 -1149 -164 -1400 -344 -119 -85 -188 -190 -187
-284 1 -97 34 -165 121 -251 195 -194 535 -311 1156 -399 443 -63 1139 -37
1585 59 400 86 716 241 820 401 164 254 -16 485 -508 648 -334 111 -722 167
-1222 174 -124 2 -288 0 -365 -4z m775 -273 c451 -49 686 -103 889 -206 88
-44 220 -135 228 -156 16 -43 -180 -171 -365 -238 -190 -68 -447 -120 -757
-153 -234 -24 -763 -25 -987 0 -395 43 -694 118 -898 223 -100 51 -210 138
-210 165 0 11 20 34 48 54 222 163 689 286 1257 329 118 9 658 -3 795 -18z"/>
<path d="M2436 6993 c2 -16 8 -80 14 -143 72 -742 342 -1479 733 -2000 101
-134 194 -232 520 -545 174 -167 207 -217 226 -345 5 -36 17 -362 26 -725 8
-363 20 -694 25 -735 7 -56 22 -99 56 -170 94 -191 296 -346 554 -424 243 -73
477 -93 735 -62 344 42 585 145 765 325 100 100 153 191 169 291 6 36 18 326
26 645 25 900 27 927 104 1041 40 60 171 191 316 319 572 500 970 1364 1085
2353 12 101 19 186 17 188 -3 3 -27 -9 -55 -26 -90 -55 -354 -177 -507 -233
-458 -169 -889 -257 -1544 -314 -285 -25 -998 -25 -1236 0 -394 42 -781 107
-1035 174 -367 96 -721 239 -929 373 -34 22 -63 40 -65 40 -1 0 -1 -12 0 -27z"/>
<path d="M4370 1617 c0 -135 2 -156 20 -185 65 -106 381 -121 483 -24 44 41
57 75 57 146 l0 64 -52 7 c-179 22 -371 72 -461 119 l-47 25 0 -152z"/>
<path d="M5805 1740 c-81 -39 -209 -75 -341 -95 -60 -10 -119 -19 -131 -21
-21 -4 -23 -10 -23 -70 0 -72 8 -94 53 -141 45 -47 113 -68 227 -67 118 0 198
22 248 69 l37 33 3 161 c2 89 0 161 -5 160 -4 0 -35 -14 -68 -29z"/>
</g>
</svg>
