<?xml version="1.0" standalone="no"?>
<!DOCTYPE svg PUBLIC "-//W3C//DTD SVG 20010904//EN"
 "http://www.w3.org/TR/2001/REC-SVG-20010904/DTD/svg10.dtd">
<svg version="1.0" xmlns="http://www.w3.org/2000/svg"
 width="188.000000pt" height="183.000000pt" viewBox="0 0 188.000000 183.000000"
 preserveAspectRatio="xMidYMid meet">

<g transform="translate(0.000000,183.000000) scale(0.100000,-0.100000)"
fill="#000000" stroke="none">
<path d="M498 1630 c-11 -165 -9 -1486 2 -1513 5 -13 9 137 9 396 l1 417 423
-2 422 -3 5 -415 5 -415 5 415 5 415 190 5 c105 3 -90 7 -432 8 l-623 2 -2
403 c-2 292 -5 370 -10 287z"/>
<path d="M325 1517 c0 -79 -1 -82 -22 -81 -13 0 -23 -3 -23 -8 0 -12 34 -10
48 4 13 13 17 135 4 155 -4 6 -7 -26 -7 -70z"/>
<path d="M1530 1570 c-5 -33 -7 -35 -45 -35 -38 0 -40 2 -38 29 1 16 -1 25 -5
22 -10 -10 -11 -129 -1 -148 7 -13 23 -16 79 -16 39 1 72 4 75 8 2 3 -9 4 -26
2 -28 -4 -29 -3 -29 37 0 36 3 41 28 47 46 10 48 12 10 13 -35 1 -37 3 -40 39
l-4 37 -4 -35z m-2 -91 c3 -31 -1 -37 -20 -43 -57 -15 -78 6 -58 58 8 23 15
27 42 24 30 -3 33 -6 36 -39z"/>
<path d="M671 1556 c-1 -37 -2 -38 -35 -34 -19 2 -32 0 -30 -4 9 -14 64 -9 70
6 3 8 4 27 1 43 -3 23 -4 21 -6 -11z"/>
<path d="M842 1560 c-1 -14 2 -29 6 -35 9 -13 75 -14 84 -1 12 18 9 31 -4 18
-7 -7 -27 -12 -44 -12 -28 0 -33 4 -37 28 -4 26 -4 26 -5 2z"/>
<path d="M1179 1550 c-3 -19 -11 -26 -33 -28 -16 -2 -33 2 -38 10 -8 10 -9 10
-5 -2 2 -9 18 -16 40 -18 34 -3 37 -6 37 -36 0 -17 5 -37 12 -44 14 -14 64
-16 72 -3 3 4 -11 8 -32 7 -33 -1 -37 2 -40 27 -5 38 15 60 50 55 15 -3 28 -1
28 4 0 4 -16 8 -35 8 -28 0 -38 5 -44 23 l-9 22 -3 -25z"/>
<path d="M841 1469 c0 -15 5 -32 13 -38 19 -16 68 -10 74 9 4 13 3 13 -11 2
-27 -23 -61 -11 -68 23 -6 29 -7 29 -8 4z"/>
<path d="M931 1474 c0 -11 3 -14 6 -6 3 7 2 16 -1 19 -3 4 -6 -2 -5 -13z"/>
<path d="M847 849 c-73 -17 -159 -74 -198 -132 -18 -27 -15 -25 17 9 173 182
452 153 575 -61 16 -27 29 -45 29 -39 0 7 -18 39 -40 72 -84 125 -237 185
-383 151z"/>
<path d="M1519 791 c-31 -32 -38 -65 -14 -75 12 -4 13 -2 3 14 -11 16 -8 24
16 49 16 17 42 32 60 34 l31 4 -33 1 c-25 2 -41 -5 -63 -27z"/>
<path d="M1575 759 c-4 -6 -5 -11 -4 -12 2 -1 20 -11 39 -21 l35 -19 -29 32
c-34 35 -33 35 -41 20z"/>
<path d="M903 723 c15 -2 39 -2 55 0 15 2 2 4 -28 4 -30 0 -43 -2 -27 -4z"/>
<path d="M1030 706 c0 -2 16 -14 35 -26 19 -12 48 -43 63 -68 22 -38 27 -59
27 -113 0 -56 -5 -73 -30 -115 -44 -71 -109 -108 -188 -108 -206 1 -304 237
-160 382 24 24 35 39 26 33 -61 -33 -103 -113 -103 -196 0 -135 93 -228 230
-229 201 -1 310 218 187 377 -22 28 -87 76 -87 63z"/>
<path d="M610 659 c-7 -11 -10 -23 -7 -25 2 -2 9 7 15 21 14 30 7 33 -8 4z"/>
<path d="M254 425 c-10 -8 -14 -15 -7 -15 6 0 15 5 18 10 3 6 21 10 40 10 62
0 100 -93 60 -146 -22 -29 -17 -43 5 -15 34 40 24 125 -19 158 -22 17 -73 16
-97 -2z"/>
<path d="M272 368 c-17 -17 -15 -63 4 -79 34 -28 68 26 44 70 -12 24 -30 27
-48 9z"/>
<path d="M1497 373 c-15 -14 -5 -41 25 -69 l32 -29 -27 33 c-48 59 -28 86 26
35 l28 -28 21 28 c11 15 29 27 41 28 14 0 17 3 8 6 -8 3 -29 -2 -48 -12 -31
-17 -34 -17 -51 -2 -19 18 -44 22 -55 10z"/>
</g>
</svg>
