<?xml version="1.0" standalone="no"?>
<!DOCTYPE svg PUBLIC "-//W3C//DTD SVG 20010904//EN"
 "http://www.w3.org/TR/2001/REC-SVG-20010904/DTD/svg10.dtd">
<svg version="1.0" xmlns="http://www.w3.org/2000/svg"
 width="1024.000000pt" height="1024.000000pt" viewBox="0 0 1024.000000 1024.000000"
 preserveAspectRatio="xMidYMid meet">

<g transform="translate(0.000000,1024.000000) scale(0.100000,-0.100000)"
fill="#000000" stroke="none">
<path d="M2070 9423 c-327 -36 -610 -172 -845 -408 -210 -209 -333 -447 -379
-730 -15 -91 -17 -356 -14 -3020 l3 -2920 27 -109 c53 -212 147 -408 268 -558
219 -272 490 -439 828 -510 l107 -23 3020 0 c2872 0 3025 1 3115 18 207 40
408 125 569 244 104 76 235 204 301 293 103 140 203 347 244 507 47 183 46 75
46 3088 0 1884 -3 2859 -10 2915 -38 312 -172 586 -394 805 -200 199 -427 323
-704 387 l-97 22 -3025 2 c-1664 0 -3041 -1 -3060 -3z m790 -4143 l0 -3910
-343 0 c-188 0 -379 5 -425 10 -195 25 -354 83 -511 187 -269 179 -449 460
-518 808 -17 85 -18 240 -18 2925 l0 2835 23 114 c62 307 208 543 444 716 141
105 360 189 550 213 40 5 236 10 436 11 l362 1 0 -3910z m5278 3900 c425 -54
794 -358 935 -770 65 -191 61 -89 64 -1582 l4 -1358 -3031 0 -3030 0 0 1860 0
1860 2488 0 c1647 0 2515 -3 2570 -10z m-1038 -5875 l0 -1935 -2010 0 -2010 0
0 1935 0 1935 2010 0 2010 0 0 -1935z m2037 523 c-3 -1292 -5 -1419 -20 -1483
-49 -199 -124 -363 -231 -506 -142 -189 -339 -330 -561 -402 -172 -57 -192
-59 -612 -64 l-393 -5 0 1936 0 1936 910 0 911 0 -4 -1412z"/>
<path d="M1867 8594 c-65 -20 -122 -78 -141 -145 -13 -42 -16 -110 -16 -346 0
-344 3 -366 69 -434 109 -113 292 -97 378 32 l28 42 3 336 c3 366 1 389 -50
447 -63 71 -174 99 -271 68z m108 -494 c0 -278 0 -285 -20 -285 -19 0 -20 8
-23 275 -1 151 0 281 3 288 3 7 13 12 22 10 17 -3 18 -25 18 -288z"/>
<path d="M1901 3159 c-71 -14 -162 -62 -223 -118 -74 -67 -131 -159 -171 -274
-30 -88 -32 -98 -31 -247 0 -141 2 -162 27 -235 49 -147 151 -284 257 -347
101 -59 256 -77 370 -44 166 49 301 193 367 391 24 71 27 96 27 225 1 169 -12
229 -75 359 -48 97 -143 200 -226 244 -91 48 -218 67 -322 46z m192 -245 c83
-28 161 -131 193 -256 53 -206 -18 -437 -159 -518 -44 -25 -63 -30 -120 -30
-39 0 -84 7 -105 15 -86 36 -168 152 -193 274 -16 80 -7 242 19 314 37 103
110 183 190 207 45 14 126 11 175 -6z"/>
<path d="M3470 8584 c-90 -39 -110 -86 -110 -254 0 -149 8 -179 63 -227 48
-42 92 -53 207 -53 118 0 161 12 211 57 50 45 59 80 59 227 0 147 -17 192 -88
237 -45 28 -49 29 -176 29 -94 -1 -141 -5 -166 -16z m220 -259 l0 -65 -60 0
-60 0 0 65 0 65 60 0 60 0 0 -65z"/>
<path d="M4755 8584 c-87 -47 -104 -90 -105 -258 0 -109 3 -136 20 -171 20
-41 20 -41 0 -80 -28 -55 -29 -270 -1 -330 41 -89 98 -115 254 -115 131 0 179
17 231 83 31 39 31 39 34 185 3 144 3 148 -22 185 -14 20 -22 37 -18 37 5 0
16 16 25 35 13 28 17 64 17 168 0 158 -14 200 -81 244 -41 27 -48 28 -183 30
-115 3 -147 0 -171 -13z m225 -259 l0 -65 -60 0 -60 0 0 65 0 65 60 0 60 0 0
-65z m0 -409 c0 -72 -2 -74 -72 -68 l-48 4 0 64 0 64 60 0 60 0 0 -64z"/>
<path d="M6045 8584 c-87 -47 -105 -91 -105 -254 0 -101 4 -133 19 -166 21
-45 67 -85 120 -103 40 -13 203 -15 246 -2 l30 8 -3 -132 c-5 -146 3 -186 46
-237 44 -53 92 -68 217 -68 129 0 173 10 220 51 55 48 67 96 63 242 -3 113 -5
129 -26 157 -21 28 -22 33 -9 48 29 33 39 96 36 224 -4 115 -6 127 -31 165
-45 68 -90 83 -250 83 -125 0 -138 -2 -169 -23 l-34 -23 -28 20 c-25 19 -45
21 -170 23 -116 3 -148 0 -172 -13z m225 -259 l0 -65 -60 0 -60 0 0 65 0 65
60 0 60 0 0 -65z m410 0 l0 -65 -60 0 -60 0 0 65 0 65 60 0 60 0 0 -65z m0
-416 c0 -61 -2 -70 -16 -65 -9 3 -36 6 -60 6 l-44 0 0 65 0 65 60 0 60 0 0
-71z"/>
<path d="M7682 8579 c-29 -15 -51 -36 -70 -68 -26 -44 -27 -52 -27 -181 0
-121 2 -140 23 -178 l22 -43 -22 -30 c-21 -28 -23 -41 -23 -174 0 -143 0 -143
30 -186 53 -76 78 -84 247 -84 134 0 149 2 175 22 l30 21 34 -21 c30 -20 48
-22 176 -22 141 0 141 0 184 30 70 50 79 78 79 241 0 132 -2 144 -24 176 l-23
35 21 29 c19 25 21 45 24 174 l3 145 -29 46 c-20 31 -45 53 -76 68 -41 21 -58
22 -181 19 -122 -3 -137 -5 -156 -24 l-21 -22 -36 24 c-33 23 -44 24 -176 24
-123 0 -146 -3 -184 -21z m238 -254 l0 -65 -58 0 c-32 0 -61 2 -63 4 -2 2 -2
32 -1 65 l4 61 59 0 59 0 0 -65z m410 0 l0 -66 -61 3 -61 3 -5 63 -4 62 65 0
66 0 0 -65z m-410 -413 c0 -65 -1 -69 -22 -66 -13 1 -42 3 -65 3 l-42 1 2 65
2 65 63 0 62 0 0 -68z m410 5 c0 -35 -2 -66 -4 -68 -2 -2 -32 -2 -65 -1 l-61
4 0 64 0 64 65 0 65 0 0 -63z"/>
<path d="M4870 5029 c-765 -87 -1393 -663 -1549 -1419 -46 -223 -52 -495 -16
-705 103 -595 463 -1078 996 -1334 267 -129 501 -181 819 -181 404 0 769 120
1085 357 441 331 701 832 731 1408 23 423 -134 885 -417 1231 -81 99 -229 237
-340 317 -178 126 -455 249 -670 296 -178 38 -452 51 -639 30z m475 -233 c353
-54 661 -211 908 -462 154 -157 248 -299 323 -484 161 -397 173 -772 38 -1168
-82 -239 -213 -444 -403 -625 -332 -317 -771 -475 -1220 -438 -303 25 -540
105 -782 263 -113 74 -328 285 -406 399 -372 544 -388 1277 -39 1814 241 370
619 615 1071 696 125 22 383 24 510 5z"/>
<path d="M4950 4420 c-267 -32 -512 -152 -707 -348 -279 -280 -403 -666 -337
-1053 46 -266 149 -467 338 -655 256 -255 567 -378 916 -361 135 7 237 26 340
63 425 152 737 522 811 963 17 98 14 302 -5 404 -47 246 -154 447 -335 627
-185 184 -398 299 -640 346 -96 19 -283 25 -381 14z m300 -235 c425 -64 744
-371 831 -800 21 -104 15 -296 -14 -405 -76 -291 -258 -513 -531 -645 -138
-67 -247 -95 -396 -102 -499 -23 -940 344 -1009 841 -30 214 11 450 110 625
125 220 347 394 591 461 150 41 268 48 418 25z"/>
<path d="M8141 4790 c-45 -21 -298 -261 -352 -334 -35 -47 -38 -96 -9 -143 20
-34 72 -55 112 -46 13 3 96 77 184 165 102 102 167 159 178 157 9 -2 87 -75
175 -161 l158 -158 47 0 c39 0 53 5 76 29 33 33 45 69 35 109 -10 41 -317 346
-379 377 -64 32 -160 34 -225 5z"/>
<path d="M7820 2818 c-39 -21 -64 -76 -56 -123 7 -33 31 -63 159 -193 178
-180 211 -203 308 -210 115 -8 138 6 331 196 91 90 172 177 178 193 38 91 -65
184 -153 138 -12 -7 -87 -79 -167 -161 -111 -113 -151 -149 -170 -148 -19 0
-60 36 -175 156 -137 142 -153 156 -190 160 -23 3 -51 -1 -65 -8z"/>
</g>
</svg>
